<?xml version="1.0" encoding="utf-8"?>
<!-- Generator: Adobe Illustrator 19.1.0, SVG Export Plug-In . SVG Version: 6.00 Build 0)  -->
<!DOCTYPE svg PUBLIC "-//W3C//DTD SVG 1.0//EN" "http://www.w3.org/TR/2001/REC-SVG-20010904/DTD/svg10.dtd">
<svg version="1.0" id="Layer_1" xmlns="http://www.w3.org/2000/svg" xmlns:xlink="http://www.w3.org/1999/xlink" x="0px" y="0px"
	 width="400px" height="400px" viewBox="0 0 400 400" style="enable-background:new 0 0 400 400;" xml:space="preserve">
<g>
	<path d="M57.9,154.4c-19.5-5.7-27-17.4-27-31.8c0-29.1,37.2-63.3,78-63.3c24.9,0,33.6,21.3,33.6,51.6c0,4.8-0.9,11.7-1.2,17.1
		c11.1-14.4,35.7-40.5,48.3-40.5c14.1,0,16.2,31.2,16.2,41.7c0,42.3-10.5,97.8-10.5,114.3c0,3.3,0,5.4,1.2,6
		c0.6,0,45.6-102.3,73.8-145.5c5.4-8.7,11.1-12.9,13.5-12.9c1.2,0,1.5,0.6,1.5,2.1c0,4.2-2.4,11.7-3.9,18.3
		c-8.7,37.5-21.9,98.4-21.9,145.5c0,39.6,9.3,69.9,38.7,69.9c15.6,0,36.3-8.7,64.2-28.5l1.5,1.5c-32.4,22.8-56.4,32.7-73.2,32.7
		c-30.3,0-39.6-30.3-39.6-69.9c0-55.2,19.2-124.5,25.2-160.5c-27.3,42-57.3,122.4-76.8,149.4c-4.2,6-8.1,8.1-11.4,8.1
		c-1.2,0-1.8-2.1-1.8-6c0-14.7,11.1-75.9,11.1-118.5c0-14.1-0.6-41.7-12.6-41.7c-9.9,0-37.8,30.6-43.8,39.9
		c-7.2,64.8-42.3,147.3-50.4,156.9c-4.5,5.1-7.5,6.6-9.9,6.9c-3.6,0-4.8-4.5-4.8-14.1c0-27.9,16.2-93.6,57-146.4
		c0.9-7.5,1.2-14.4,1.2-21.3c0-29.4-9.3-50.4-32.7-50.4C63.6,65,39,93.8,39,117.2c0,14.1,8.7,25.5,26.7,30.9L57.9,154.4z M132,143.9
		c-33.6,48.3-48,108.3-48,133.5c0,6.3,0.9,10.5,2.1,12.3c8.7-14.4,28.5-63.3,39.6-112.2C128.7,166.1,130.5,154.7,132,143.9z"/>
</g>
<g>
</g>
<g>
</g>
<g>
</g>
<g>
</g>
<g>
</g>
<g>
</g>
</svg>
